<mxfile host="app.diagrams.net" agent="Mozilla/5.0 (X11; Linux x86_64; rv:137.0) Gecko/20100101 Firefox/137.0" version="26.2.13">
  <diagram name="Page-1" id="bfe91b75-5d2c-26a0-9c1d-138518896778">
    <mxGraphModel dx="1181" dy="1805" grid="1" gridSize="10" guides="1" tooltips="1" connect="1" arrows="1" fold="1" page="1" pageScale="1" pageWidth="1100" pageHeight="850" background="none" math="0" shadow="0">
      <root>
        <mxCell id="0" />
        <mxCell id="1" parent="0" />
        <mxCell id="lo1PxwJKc9zH5wvfJeO0-3" style="edgeStyle=orthogonalEdgeStyle;rounded=0;orthogonalLoop=1;jettySize=auto;html=1;fillColor=#008a00;strokeColor=#005700;" edge="1" parent="1" source="7c3789c024ecab99-53" target="lo1PxwJKc9zH5wvfJeO0-1">
          <mxGeometry relative="1" as="geometry" />
        </mxCell>
        <mxCell id="7c3789c024ecab99-53" value="Internet" style="html=1;fillColor=#CCCCCC;strokeColor=#6881B3;gradientColor=none;gradientDirection=north;strokeWidth=2;shape=mxgraph.networks.cloud;fontColor=#6881B3;rounded=0;shadow=0;comic=0;align=center;fontSize=28;" parent="1" vertex="1">
          <mxGeometry x="70" y="-10" width="330" height="140" as="geometry" />
        </mxCell>
        <mxCell id="lo1PxwJKc9zH5wvfJeO0-4" value="100 cm inkl." style="edgeStyle=orthogonalEdgeStyle;rounded=0;orthogonalLoop=1;jettySize=auto;html=1;fillColor=#008a00;strokeColor=#005700;" edge="1" parent="1" source="lo1PxwJKc9zH5wvfJeO0-1" target="lo1PxwJKc9zH5wvfJeO0-2">
          <mxGeometry relative="1" as="geometry" />
        </mxCell>
        <mxCell id="lo1PxwJKc9zH5wvfJeO0-1" value="&lt;span style=&quot;color: light-dark(transparent, rgb(254, 254, 254));&quot;&gt;Glasfaserübergabepunkt&lt;/span&gt;" style="verticalAlign=top;verticalLabelPosition=bottom;labelPosition=center;align=center;html=1;outlineConnect=0;gradientDirection=north;strokeWidth=2;shape=mxgraph.networks.modem;fillColor=#008a00;fontColor=#ffffff;strokeColor=#005700;" vertex="1" parent="1">
          <mxGeometry x="185" y="410" width="100" height="30" as="geometry" />
        </mxCell>
        <mxCell id="lo1PxwJKc9zH5wvfJeO0-21" style="edgeStyle=orthogonalEdgeStyle;rounded=0;orthogonalLoop=1;jettySize=auto;html=1;" edge="1" parent="1" source="lo1PxwJKc9zH5wvfJeO0-2" target="lo1PxwJKc9zH5wvfJeO0-9">
          <mxGeometry relative="1" as="geometry" />
        </mxCell>
        <mxCell id="lo1PxwJKc9zH5wvfJeO0-2" value="&lt;span style=&quot;color: light-dark(rgb(0, 0, 0), rgb(255, 255, 255));&quot;&gt;Netzabschlussgerät&lt;/span&gt;&lt;br&gt;&lt;div&gt;&lt;br&gt;&lt;/div&gt;&lt;div&gt;BR&lt;/div&gt;&lt;div&gt;&lt;br&gt;Bra&lt;/div&gt;" style="fontColor=#ffffff;verticalAlign=top;verticalLabelPosition=bottom;labelPosition=center;align=center;html=1;outlineConnect=0;fillColor=#60a917;strokeColor=#2D7600;gradientDirection=north;strokeWidth=2;shape=mxgraph.networks.modem;" vertex="1" parent="1">
          <mxGeometry x="185" y="590" width="100" height="30" as="geometry" />
        </mxCell>
        <mxCell id="lo1PxwJKc9zH5wvfJeO0-15" style="edgeStyle=orthogonalEdgeStyle;rounded=0;orthogonalLoop=1;jettySize=auto;html=1;fillColor=#fa6800;strokeColor=#C73500;" edge="1" parent="1" source="lo1PxwJKc9zH5wvfJeO0-9" target="lo1PxwJKc9zH5wvfJeO0-12">
          <mxGeometry relative="1" as="geometry">
            <Array as="points">
              <mxPoint x="235" y="930" />
              <mxPoint x="270" y="930" />
            </Array>
          </mxGeometry>
        </mxCell>
        <mxCell id="lo1PxwJKc9zH5wvfJeO0-16" style="edgeStyle=orthogonalEdgeStyle;rounded=0;orthogonalLoop=1;jettySize=auto;html=1;fillColor=#fa6800;strokeColor=#C73500;" edge="1" parent="1" target="lo1PxwJKc9zH5wvfJeO0-13">
          <mxGeometry relative="1" as="geometry">
            <mxPoint x="235" y="840" as="sourcePoint" />
            <Array as="points">
              <mxPoint x="235" y="930" />
              <mxPoint x="400" y="930" />
            </Array>
          </mxGeometry>
        </mxCell>
        <mxCell id="lo1PxwJKc9zH5wvfJeO0-9" value="Router" style="fontColor=#0066CC;verticalAlign=top;verticalLabelPosition=bottom;labelPosition=center;align=center;html=1;outlineConnect=0;fillColor=#CCCCCC;strokeColor=#6881B3;gradientColor=none;gradientDirection=north;strokeWidth=2;shape=mxgraph.networks.wireless_modem;" vertex="1" parent="1">
          <mxGeometry x="300" y="710" width="100" height="85" as="geometry" />
        </mxCell>
        <mxCell id="lo1PxwJKc9zH5wvfJeO0-10" value="Erdgeschoss" style="fontColor=#0066CC;verticalAlign=top;verticalLabelPosition=bottom;labelPosition=center;align=center;html=1;outlineConnect=0;fillColor=#CCCCCC;strokeColor=#6881B3;gradientColor=none;gradientDirection=north;strokeWidth=2;shape=mxgraph.networks.wireless_hub;" vertex="1" parent="1">
          <mxGeometry x="460" y="440" width="100" height="85" as="geometry" />
        </mxCell>
        <mxCell id="lo1PxwJKc9zH5wvfJeO0-11" value="" style="fontColor=#0066CC;verticalAlign=top;verticalLabelPosition=bottom;labelPosition=center;align=center;html=1;outlineConnect=0;fillColor=#CCCCCC;strokeColor=#6881B3;gradientColor=none;gradientDirection=north;strokeWidth=2;shape=mxgraph.networks.phone_1;" vertex="1" parent="1">
          <mxGeometry x="85" y="1020" width="100" height="70" as="geometry" />
        </mxCell>
        <mxCell id="lo1PxwJKc9zH5wvfJeO0-12" value="" style="fontColor=#0066CC;verticalAlign=top;verticalLabelPosition=bottom;labelPosition=center;align=center;html=1;outlineConnect=0;fillColor=#CCCCCC;strokeColor=#6881B3;gradientColor=none;gradientDirection=north;strokeWidth=2;shape=mxgraph.networks.phone_1;" vertex="1" parent="1">
          <mxGeometry x="220" y="1021" width="100" height="70" as="geometry" />
        </mxCell>
        <mxCell id="lo1PxwJKc9zH5wvfJeO0-13" value="" style="fontColor=#0066CC;verticalAlign=top;verticalLabelPosition=bottom;labelPosition=center;align=center;html=1;outlineConnect=0;fillColor=#CCCCCC;strokeColor=#6881B3;gradientColor=none;gradientDirection=north;strokeWidth=2;shape=mxgraph.networks.phone_1;" vertex="1" parent="1">
          <mxGeometry x="350" y="1022" width="100" height="70" as="geometry" />
        </mxCell>
        <mxCell id="lo1PxwJKc9zH5wvfJeO0-14" style="edgeStyle=orthogonalEdgeStyle;rounded=0;orthogonalLoop=1;jettySize=auto;html=1;entryX=0.5;entryY=0;entryDx=0;entryDy=0;entryPerimeter=0;fillColor=#fa6800;strokeColor=#C73500;" edge="1" parent="1" source="lo1PxwJKc9zH5wvfJeO0-9" target="lo1PxwJKc9zH5wvfJeO0-11">
          <mxGeometry relative="1" as="geometry">
            <Array as="points">
              <mxPoint x="235" y="930" />
              <mxPoint x="135" y="930" />
            </Array>
          </mxGeometry>
        </mxCell>
        <mxCell id="lo1PxwJKc9zH5wvfJeO0-25" style="edgeStyle=orthogonalEdgeStyle;rounded=0;orthogonalLoop=1;jettySize=auto;html=1;" edge="1" parent="1" source="lo1PxwJKc9zH5wvfJeO0-19" target="lo1PxwJKc9zH5wvfJeO0-10">
          <mxGeometry relative="1" as="geometry">
            <Array as="points">
              <mxPoint x="520" y="603" />
              <mxPoint x="510" y="603" />
            </Array>
          </mxGeometry>
        </mxCell>
        <mxCell id="lo1PxwJKc9zH5wvfJeO0-26" style="edgeStyle=orthogonalEdgeStyle;rounded=0;orthogonalLoop=1;jettySize=auto;html=1;" edge="1" parent="1" source="lo1PxwJKc9zH5wvfJeO0-19" target="lo1PxwJKc9zH5wvfJeO0-22">
          <mxGeometry relative="1" as="geometry">
            <Array as="points">
              <mxPoint x="530" y="603" />
              <mxPoint x="650" y="603" />
            </Array>
          </mxGeometry>
        </mxCell>
        <mxCell id="lo1PxwJKc9zH5wvfJeO0-31" style="edgeStyle=orthogonalEdgeStyle;rounded=0;orthogonalLoop=1;jettySize=auto;html=1;exitX=0.5;exitY=0;exitDx=0;exitDy=0;exitPerimeter=0;dashed=1;" edge="1" parent="1" source="lo1PxwJKc9zH5wvfJeO0-19" target="lo1PxwJKc9zH5wvfJeO0-30">
          <mxGeometry relative="1" as="geometry">
            <Array as="points">
              <mxPoint x="560" y="630" />
              <mxPoint x="1070" y="630" />
            </Array>
          </mxGeometry>
        </mxCell>
        <mxCell id="lo1PxwJKc9zH5wvfJeO0-19" value="" style="fontColor=#0066CC;verticalAlign=top;verticalLabelPosition=bottom;labelPosition=center;align=center;html=1;outlineConnect=0;fillColor=#CCCCCC;strokeColor=#6881B3;gradientColor=none;gradientDirection=north;strokeWidth=2;shape=mxgraph.networks.switch;" vertex="1" parent="1">
          <mxGeometry x="510" y="680" width="100" height="30" as="geometry" />
        </mxCell>
        <mxCell id="lo1PxwJKc9zH5wvfJeO0-20" style="edgeStyle=orthogonalEdgeStyle;rounded=0;orthogonalLoop=1;jettySize=auto;html=1;entryX=0.1;entryY=1;entryDx=0;entryDy=0;entryPerimeter=0;" edge="1" parent="1" source="lo1PxwJKc9zH5wvfJeO0-9" target="lo1PxwJKc9zH5wvfJeO0-19">
          <mxGeometry relative="1" as="geometry" />
        </mxCell>
        <mxCell id="lo1PxwJKc9zH5wvfJeO0-22" value="Isabelle" style="fontColor=#0066CC;verticalAlign=top;verticalLabelPosition=bottom;labelPosition=center;align=center;html=1;outlineConnect=0;fillColor=#CCCCCC;strokeColor=#6881B3;gradientColor=none;gradientDirection=north;strokeWidth=2;shape=mxgraph.networks.wireless_hub;" vertex="1" parent="1">
          <mxGeometry x="600" y="440" width="100" height="85" as="geometry" />
        </mxCell>
        <mxCell id="lo1PxwJKc9zH5wvfJeO0-23" value="Speicher" style="fontColor=#0066CC;verticalAlign=top;verticalLabelPosition=bottom;labelPosition=center;align=center;html=1;outlineConnect=0;fillColor=#CCCCCC;strokeColor=#6881B3;gradientColor=none;gradientDirection=north;strokeWidth=2;shape=mxgraph.networks.wireless_hub;" vertex="1" parent="1">
          <mxGeometry x="740" y="440" width="100" height="85" as="geometry" />
        </mxCell>
        <mxCell id="lo1PxwJKc9zH5wvfJeO0-27" style="edgeStyle=orthogonalEdgeStyle;rounded=0;orthogonalLoop=1;jettySize=auto;html=1;exitX=0.305;exitY=-0.05;exitDx=0;exitDy=0;exitPerimeter=0;" edge="1" parent="1" source="lo1PxwJKc9zH5wvfJeO0-19" target="lo1PxwJKc9zH5wvfJeO0-23">
          <mxGeometry relative="1" as="geometry">
            <mxPoint x="600" y="620" as="sourcePoint" />
            <mxPoint x="790" y="550" as="targetPoint" />
            <Array as="points">
              <mxPoint x="541" y="610" />
              <mxPoint x="790" y="610" />
            </Array>
          </mxGeometry>
        </mxCell>
        <mxCell id="lo1PxwJKc9zH5wvfJeO0-28" value="Büro Papa" style="fontColor=#0066CC;verticalAlign=top;verticalLabelPosition=bottom;labelPosition=center;align=center;html=1;outlineConnect=0;fillColor=#CCCCCC;strokeColor=#6881B3;gradientColor=none;gradientDirection=north;strokeWidth=2;shape=mxgraph.networks.wireless_hub;" vertex="1" parent="1">
          <mxGeometry x="880" y="440" width="100" height="85" as="geometry" />
        </mxCell>
        <mxCell id="lo1PxwJKc9zH5wvfJeO0-29" style="edgeStyle=orthogonalEdgeStyle;rounded=0;orthogonalLoop=1;jettySize=auto;html=1;entryX=0.5;entryY=1;entryDx=0;entryDy=0;entryPerimeter=0;dashed=1;" edge="1" parent="1" source="lo1PxwJKc9zH5wvfJeO0-19" target="lo1PxwJKc9zH5wvfJeO0-28">
          <mxGeometry relative="1" as="geometry">
            <Array as="points">
              <mxPoint x="550" y="620" />
              <mxPoint x="930" y="620" />
            </Array>
          </mxGeometry>
        </mxCell>
        <mxCell id="lo1PxwJKc9zH5wvfJeO0-30" value="Wohzimmer" style="fontColor=#0066CC;verticalAlign=top;verticalLabelPosition=bottom;labelPosition=center;align=center;html=1;outlineConnect=0;fillColor=#CCCCCC;strokeColor=#6881B3;gradientColor=none;gradientDirection=north;strokeWidth=2;shape=mxgraph.networks.wireless_hub;" vertex="1" parent="1">
          <mxGeometry x="1020" y="440" width="100" height="85" as="geometry" />
        </mxCell>
      </root>
    </mxGraphModel>
  </diagram>
</mxfile>
